<?xml version="1.0" encoding="UTF-8" standalone="no"?>
<!-- Created with Inkscape (http://www.inkscape.org/) -->

<svg
   width="88"
   height="88"
   viewBox="0 0 23.283333 23.283334"
   version="1.1"
   id="svg5"
   inkscape:version="1.1 (c68e22c387, 2021-05-23)"
   sodipodi:docname="biodiversity.svg"
   xmlns:inkscape="http://www.inkscape.org/namespaces/inkscape"
   xmlns:sodipodi="http://sodipodi.sourceforge.net/DTD/sodipodi-0.dtd"
   xmlns="http://www.w3.org/2000/svg"
   xmlns:svg="http://www.w3.org/2000/svg">
  <sodipodi:namedview
     id="namedview7"
     pagecolor="#ffffff"
     bordercolor="#666666"
     borderopacity="1.0"
     inkscape:pageshadow="2"
     inkscape:pageopacity="0.0"
     inkscape:pagecheckerboard="0"
     inkscape:document-units="mm"
     showgrid="false"
     units="px"
     inkscape:zoom="0.37059484"
     inkscape:cx="-400.70715"
     inkscape:cy="476.26136"
     inkscape:window-width="1920"
     inkscape:window-height="1017"
     inkscape:window-x="3832"
     inkscape:window-y="-8"
     inkscape:window-maximized="1"
     inkscape:current-layer="layer1" />
  <defs
     id="defs2">
    <clipPath
       id="clip1">
      <path
         d="M 0,0 H 476.28906 V 678.69922 H 0 Z m 0,0"
         id="path855" />
    </clipPath>
  </defs>
  <g
     inkscape:label="Layer 1"
     inkscape:groupmode="layer"
     id="layer1">
    <path
       style="fill:#3875c2;fill-opacity:1;fill-rule:nonzero;stroke:none;stroke-width:0.352778"
       d="m 14.392405,15.734993 c 0.809436,-1.192203 1.338313,-2.398814 1.74166,-3.749474 -0.393057,0 -0.716145,0.01853 -1.035804,-0.0055 -0.294965,-0.02195 -0.476745,0.06448 -0.618053,0.342295 -0.258608,0.506927 -0.572779,0.985044 -0.838247,1.489225 -0.0734,0.139252 -0.126217,0.362876 -0.06517,0.487722 0.228425,0.465082 0.508298,0.904785 0.81561,1.43572 z M 7.1801847,11.987576 c 0.3958,1.360265 0.912335,2.581279 1.74235,3.748102 0.301138,-0.525447 0.569349,-0.953487 0.790915,-1.404852 0.06243,-0.126902 0.03772,-0.345725 -0.03156,-0.478802 -0.286046,-0.549455 -0.596788,-1.086566 -0.917132,-1.617501 -0.06379,-0.10701 -0.20236,-0.228425 -0.314172,-0.235972 -0.401288,-0.02812 -0.806691,-0.01097 -1.270401,-0.01097 z m 8.0394913,3.81327 c -0.427355,0.544654 -0.811494,1.070102 -1.236106,1.561251 -0.214706,0.248318 -0.196185,0.41981 -0.01578,0.6695 0.583068,0.808064 1.141443,1.633278 1.711478,2.450263 0.163945,0.234595 0.334064,0.464396 0.518589,0.720261 0.8307,-1.623676 0.410891,-3.886669 -0.978184,-5.401275 z m -7.1182403,0.03224 c -1.354091,1.186032 -1.839071,3.73027 -0.984361,5.379324 0.79778,-1.148304 1.578406,-2.26711 2.346685,-3.394832 0.04459,-0.06517 0.02058,-0.230483 -0.03361,-0.301823 -0.434214,-0.567292 -0.88352,-1.122922 -1.328711,-1.682669 z M 13.824427,7.1535945 c -0.706542,-0.374536 -1.351347,-0.720948 -2.00164,-1.057069 -0.0782,-0.04047 -0.205104,-0.06654 -0.274385,-0.03087 -0.688707,0.355329 -1.369869,0.725749 -2.0661223,1.098227 0.288105,0.507612 0.5199603,0.957605 0.7964043,1.378786 0.08712,0.133076 0.288104,0.260666 0.443818,0.268897 0.619424,0.03156 1.241593,0.02126 1.862389,0.01029 0.117987,-0.0021 0.292221,-0.03979 0.342982,-0.122102 0.307998,-0.493893 0.587185,-1.004936 0.896554,-1.546161 z m 0.60502,0.32789 c -0.283303,0.489092 -0.567978,0.923992 -0.788172,1.389076 -0.07957,0.168746 -0.07271,0.440388 0.0082,0.611878 0.20716,0.440389 0.490463,0.8437345 0.719575,1.2752055 0.173549,0.325832 0.313484,0.635888 0.7868,0.565234 0.351213,-0.05282 0.714773,-0.01646 1.069416,-0.05351 0.06036,-0.0062 0.135135,-0.176292 0.148854,-0.278501 0.08986,-0.677045 0.176978,-1.3547765 0.235285,-2.0352515 0.01098,-0.130333 -0.07546,-0.336808 -0.181094,-0.397173 -0.645491,-0.371106 -1.308818,-0.709972 -1.998896,-1.076962 z m -5.5439543,0.01098 c -0.382768,0.194127 -0.717518,0.360131 -1.048838,0.532993 -1.23542,0.646863 -1.23473,0.648235 -1.06804,2.0311365 0.15228,1.262172 0.15228,1.248453 1.415137,1.263544 0.326519,0.0041 0.508985,-0.100837 0.655095,-0.378652 0.26684,-0.506241 0.573466,-0.9912155 0.835503,-1.4995145 0.06997,-0.136507 0.103581,-0.358073 0.04116,-0.48429 -0.239401,-0.480175 -0.525448,-0.937026 -0.830015,-1.465217 z m 3.9600653,-1.568798 c 0.04939,-0.03704 0.09809,-0.07408 0.147482,-0.111126 0.0343,-0.639318 0.06928,-1.278635 0.104266,-1.917953 -0.04459,0.02058 -0.08849,0.04047 -0.132391,0.06105 -0.19207,-0.140622 -0.384139,-0.281244 -0.576208,-0.421867 0.137878,-0.172177 0.275071,-0.345039 0.436272,-0.547399 -0.253807,-0.808064 -0.71203,-1.308817 -1.210725,-1.2820645 -0.482233,0.026069 -0.956919,0.5981595 -1.120178,1.2868665 0.163946,0.210591 0.288105,0.371106 0.412264,0.530935 -0.159829,0.105639 -0.323774,0.206475 -0.47743,0.319659 -0.07066,0.05145 -0.173549,0.129647 -0.172863,0.194128 0.0075,0.603648 0.0343,1.206609 0.05556,1.810257 0.04871,0.0295 0.09672,0.05968 0.145424,0.08986 0.791602,-0.755932 1.58869,-0.742213 2.388524,-0.01234 z M 11.694512,14.51261 c -1.018655,-0.339551 -1.567426,0.157085 -1.8980603,1.05021 -0.07203,0.196185 -0.221566,0.36356 -0.307312,0.557 -0.04665,0.104267 -0.08849,0.269585 -0.0391,0.348471 0.528878,0.835502 1.2237583,1.51392 2.0496583,2.0524 0.08094,0.05282 0.290162,0.01304 0.373163,-0.05968 0.478803,-0.419121 0.951431,-0.847162 1.400737,-1.29784 0.743585,-0.746329 0.690765,-0.731924 0.212649,-1.677867 -0.39237,-0.777881 -0.835503,-1.317734 -1.791736,-0.972695 z m 9.66179,-6.4062095 c -0.09123,-0.187268 -0.128273,-0.290849 -0.186584,-0.38071 -0.891065,-1.366438 -2.154606,-2.161469 -3.759076,-2.40773 -0.347783,-0.05351 -0.778568,-0.152284 -1.049524,-0.0055 -0.677731,0.367676 -1.285494,0.863628 -2.026334,1.380844 1.381529,0.577581 2.422135,1.636022 3.982701,1.428861 0.739471,-0.09809 1.502258,-0.01578 2.25476,-0.01578 0.237343,0 0.473999,0 0.784057,0 z M 8.9540887,6.6816555 c -0.700368,-0.495265 -1.317734,-0.941827 -1.950194,-1.367125 -0.10838,-0.0734 -0.28124,-0.08231 -0.42118,-0.07408 -1.81437,0.111812 -3.30222,0.83619 -4.35929,2.352168 -0.096,0.137879 -0.16395,0.29565 -0.284,0.513786 1.46591,0 2.83578,6.88e-4 4.20565,-6.87e-4 0.048,0 0.10152,-0.0069 0.14336,-0.02812 0.86294,-0.449992 1.725199,-0.902728 2.665654,-1.395935 z m 2.7184723,7.0496415 c 1.006994,0.362876 1.400051,-0.277127 1.863076,-1.025514 0.483604,-0.782684 0.447248,-1.349975 -0.01234,-2.151867 -0.468513,-0.8190395 -0.949373,-1.1105735 -1.887771,-1.0961675 -0.884892,0.01372 -1.368496,0.251062 -1.8301493,1.0399195 -0.493208,0.842363 -0.493893,1.436407 -6.88e-4,2.272597 0.4650833,0.78817 0.9082163,1.274518 1.8678783,0.961032 z m 1.581831,4.476596 c -0.566605,0.37728 -0.896554,1.013167 -1.618187,1.035807 -0.742899,0.02265 -0.981613,-0.745644 -1.608583,-1.012484 -0.1028963,0.137193 -0.2215673,0.285363 -0.3285773,0.440387 -0.746328,1.07422 -1.483739,2.154612 -2.23693,3.224714 -0.35121,0.498693 -0.56386,0.483606 -0.8355,-0.05694 -1.06804,-2.120997 -0.73261,-4.116464 0.56592,-6.015897 0.17424,-0.25449 0.37454,-0.490461 0.55289,-0.72369 -1.10715,-1.941276 -1.62025,-4.034835 -1.76636,-6.2868515 -0.18384,-0.01098 -0.35533,-0.0295 -0.52682,-0.0295 -1.24434,-0.0028 -2.48799,0.0089 -3.73164,-0.0055 -0.69625,-0.0082 -0.81561003,-0.214021 -0.4884,-0.83276 1.16133,-2.196454 3.0244,-3.275474 5.47604,-3.370822 0.25244,-0.0096 0.54397,0.104266 0.76211,0.246261 0.602957,0.391684 1.173679,0.831387 1.761549,1.245708 0.135135,0.09535 0.288104,0.165317 0.524762,0.298394 -0.07546,-0.518587 -0.150226,-0.91576 -0.187268,-1.315677 -0.100151,-1.085879 0.06517,-2.1258 0.6386323,-3.0676266 0.770337,-1.26560231 2.057203,-1.27452011 2.864582,-0.028125 0.728493,1.1249796 0.774452,2.3672586 0.596101,3.6424646 -0.03087,0.218136 -0.08369,0.433529 -0.155713,0.799147 0.275071,-0.163945 0.426669,-0.241459 0.564547,-0.33818 0.535738,-0.375222 1.083136,-0.736724 1.594865,-1.1435 0.343667,-0.273013 0.698996,-0.384826 1.130467,-0.349842 2.402242,0.198244 4.217301,1.286181 5.306608,3.479891 0.246263,0.495266 0.100841,0.731237 -0.456163,0.734667 -1.276578,0.0075 -2.553156,0.01646 -3.829733,-0.0069 -0.401973,-0.0075 -0.524074,0.120043 -0.549455,0.520645 -0.119358,1.8994315 -0.607078,3.7090025 -1.4954,5.3937285 -0.190012,0.360815 -0.122101,0.564547 0.102209,0.847163 1.036491,1.308132 1.603781,2.785014 1.36438,4.467678 -0.09055,0.635205 -0.336808,1.259428 -0.58787,1.856215 -0.220194,0.523393 -0.476059,0.519277 -0.795032,0.06036 -0.784741,-1.127039 -1.567425,-2.256134 -2.352853,-3.383168 -0.07271,-0.104952 -0.157085,-0.201677 -0.255178,-0.325834"
       id="path824" />
  </g>
</svg>
