<?xml version="1.0" encoding="UTF-8" standalone="no"?>
<!-- Created with Inkscape (http://www.inkscape.org/) -->

<svg
   width="88"
   height="88"
   viewBox="0 0 23.283333 23.283334"
   version="1.1"
   id="svg5"
   sodipodi:docname="climate_change.svg"
   inkscape:version="1.1 (c68e22c387, 2021-05-23)"
   xmlns:inkscape="http://www.inkscape.org/namespaces/inkscape"
   xmlns:sodipodi="http://sodipodi.sourceforge.net/DTD/sodipodi-0.dtd"
   xmlns="http://www.w3.org/2000/svg"
   xmlns:svg="http://www.w3.org/2000/svg">
  <sodipodi:namedview
     id="namedview7"
     pagecolor="#ffffff"
     bordercolor="#666666"
     borderopacity="1.0"
     inkscape:pageshadow="2"
     inkscape:pageopacity="0.0"
     inkscape:pagecheckerboard="0"
     inkscape:document-units="mm"
     showgrid="false"
     units="px"
     inkscape:zoom="0.37059484"
     inkscape:cx="-400.70715"
     inkscape:cy="476.26136"
     inkscape:window-width="1920"
     inkscape:window-height="1017"
     inkscape:window-x="3832"
     inkscape:window-y="-8"
     inkscape:window-maximized="1"
     inkscape:current-layer="layer1" />
  <defs
     id="defs2">
    <clipPath
       id="clip1">
      <path
         d="M 0,0 H 476.28906 V 678.69922 H 0 Z m 0,0"
         id="path855" />
    </clipPath>
  </defs>
  <g
     inkscape:label="Layer 1"
     inkscape:groupmode="layer"
     id="layer1">
    <g
       id="surface56471"
       transform="matrix(0.16041993,0,0,0.16041993,-0.07118836,-3.1846391)"
       style="stroke-width:2.19909">
      <path
         style="fill:#3875c2;fill-opacity:1;fill-rule:nonzero;stroke:none;stroke-width:2.19909"
         d="M 81.070312,32.085938 C 74.441406,29.8125 68.03125,30.332031 60.34375,33.929688 c 4.925781,2.746093 8.789062,4.898437 11.332031,6.316406 3.453125,-2.996094 6.335938,-5.503906 9.394531,-8.160156 z m 14.402344,9.425781 c -4.105468,2.910156 -4.371094,5.570312 -1.136718,9.265625 1.625,1.859375 3.328124,5.367187 2.621093,7.230468 -2.011719,5.320313 0.1875,8.644532 3.531249,12.089844 4.57813,-8.066406 2.46875,-20.570312 -5.015624,-28.585937 z M 56.304688,35.960938 c -10.070313,7.296874 -14.503907,17.304687 -12.480469,29.46875 1.992187,11.960937 9.257812,20.242187 21.0625,23.589843 11.976562,3.398438 22.289062,0.01563 30.804687,-9.089843 2.550782,-2.722657 3.144532,-5.003907 0.441406,-8.167969 -3.363281,-3.941407 -6.195312,-8.285157 -3.457031,-13.980469 0.414063,-0.859375 0.0625,-2.785156 -0.640625,-3.382812 -6.40625,-5.4375 -5.195312,-10.910157 0.289063,-16.699219 C 90.21875,36.34375 88.515625,35.246094 87.207031,34.40625 84.007812,36.273438 81.3125,37.851562 78.488281,39.5 c 0,1.15625 0.207031,2.578125 -0.03906,3.921875 -0.59375,3.242187 -2.644531,4.917969 -5.671875,3.152344 C 67.339844,43.40625 62.171875,39.777344 56.304688,35.960938 Z M 72.757812,94.410156 C 54.109375,94.367188 39.25,79.359375 39.207031,60.535156 39.160156,41.644531 54.367188,26.414062 73.238281,26.449219 c 18.714844,0.03125 34.019529,15.503906 33.914059,34.292969 -0.10156,18.828124 -15.312496,33.71875 -34.394528,33.667968"
         id="path835" />
      <path
         style="fill:#3875c2;fill-opacity:1;fill-rule:nonzero;stroke:none;stroke-width:2.19909"
         d="m 120.94531,67.886719 c -1.15234,2.125 -3.21484,4.222656 -3.27343,6.378906 -0.13282,4.972656 1.28906,10.003906 1.01562,14.953125 -0.42578,7.699219 -0.96094,15.55859 -2.95703,22.94531 -1.27734,4.72657 -5.17188,8.78125 -8.10156,12.98828 -0.63672,0.91407 -2.1836,1.19141 -3.3086,1.76172 -0.0156,-1.37109 -0.46093,-2.92578 0.043,-4.0664 0.91406,-2.08203 2.17188,-4.10938 3.66406,-5.82813 6.10938,-7.02344 5.76172,-15.55078 6.25782,-23.906249 -0.53125,-0.304687 -1.0625,-0.605469 -1.59766,-0.910156 -1.38281,2.285156 -3.52734,4.425781 -3.99609,6.882813 -1.08203,5.699222 -4.09766,9.328122 -8.902348,12.433592 -4.386718,2.83594 -8.960937,6.24219 -11.703124,10.51953 -2.679688,4.17969 -3.625,9.69922 -4.460938,14.77344 -0.96875,5.88281 -0.871094,11.94141 -1.535156,17.89062 -0.128906,1.16407 -1.628906,2.17969 -2.496094,3.26172 -0.535156,-1.3125 -1.558594,-2.64062 -1.523438,-3.9414 C 78.246094,147.34375 78.6875,140.67187 79.042969,134 79.503906,125.27344 83.863281,118.60938 90.25,113.08203 c 2.003906,-1.73047 4.089844,-3.46875 6.398438,-4.72265 4.488282,-2.4375 7.289062,-5.67969 8.070312,-10.98438 0.35156,-2.398438 1.92188,-5.589844 3.875,-6.585938 4.46875,-2.269531 4.48438,-5.769531 4.41016,-9.71875 -0.043,-2.296874 -0.53907,-4.878906 0.30468,-6.84375 1.46094,-3.398437 3.15235,-7.269531 5.92969,-9.402343 4.60156,-3.53125 7.30078,-1.980469 7.78516,3.789062 1.03515,12.347657 1.89062,24.714844 2.73437,37.082029 0.64844,9.57813 -2.7539,17.67969 -9.27734,24.57813 -2.80078,2.96093 -5.5,6.02343 -8.43359,8.84765 -4.40625,4.25 -8.23438,8.66016 -8.38282,15.32032 -0.0273,1.19531 -1.88281,2.34765 -2.89453,3.52343 -0.41406,-1.36718 -1.281249,-2.77343 -1.171874,-4.09765 0.488284,-5.92969 2.117184,-11.27735 7.097654,-15.33985 3.26172,-2.66015 5.70703,-6.29687 8.8086,-9.1914 7.98437,-7.45703 11.05859,-16.50391 9.9414,-27.3125 -0.97656,-9.511721 -1.46875,-19.066409 -2.21875,-28.601565 -0.13281,-1.691406 -0.49609,-3.367187 -0.7539,-5.054687 -0.50782,-0.160157 -1.01953,-0.320313 -1.52735,-0.480469"
         id="path837" />
      <path
         style="fill:#3875c2;fill-opacity:1;fill-rule:nonzero;stroke:none;stroke-width:2.19909"
         d="m 44.949219,158.39453 c -0.8125,-1.28906 -2.285157,-2.55859 -2.328125,-3.875 -0.207032,-6.38281 -3.382813,-11.07812 -8.082032,-14.83203 -16.472656,-13.15234 -20.886718,-30.15625 -17.058593,-50.304688 1.382812,-7.261718 1.355469,-14.808593 1.746093,-22.238281 0.195313,-3.667969 1.707032,-4.632812 5.117188,-3.628906 5.097656,1.5 8.324219,5.371094 8.605469,10.820313 0.128906,2.476562 0.203125,4.96875 0.07813,7.441406 -0.1875,3.738281 0.53125,6.539062 4.230468,8.757812 2.089844,1.253906 3.648438,4.429688 4.1875,7 1.070313,5.128904 3.800782,8.320314 8.210938,10.964844 3.742188,2.24219 7.5625,5.03906 10.054688,8.51953 3.101562,4.33203 5.972656,9.40625 6.953124,14.53906 1.414063,7.39453 1.128907,15.125 1.335938,22.72266 0.03516,1.20312 -1.140625,2.44531 -1.757812,3.66797 -0.757813,-1.03516 -2.074219,-2.01172 -2.183594,-3.11328 -0.59375,-5.96485 -1.363282,-11.97657 -1.167969,-17.94141 0.246094,-7.5 -2.417969,-13.54297 -7.574219,-18.5625 -2.773437,-2.69922 -5.824218,-5.3164 -9.195312,-7.14453 -4.980469,-2.69922 -7.363282,-6.68359 -8.636719,-11.988281 -0.597656,-2.496094 -2.53125,-4.671875 -4.566406,-6.585938 -1.390625,10.425779 0.746093,19.515629 7.203125,27.535159 1.351562,1.67578 1.332031,4.45703 1.941406,6.73437 -1.832031,-1.53515 -3.824219,-2.91406 -5.46875,-4.625 -8.292969,-8.63672 -8.769531,-19.76953 -9.175781,-30.714841 -0.203125,-5.507813 1.125,-11.054688 1.289062,-16.597657 0.117188,-4.058593 -0.769531,-4.785156 -5.289062,-6.550781 -0.96875,13.535157 -2.257813,26.890625 -2.738281,40.273439 -0.246094,6.91797 2.839843,13.05469 7.699218,18.15234 4.644532,4.875 9.152344,9.88281 13.867188,14.6875 4.589844,4.67969 4.035156,10.4375 4.398437,16.03906 -0.566406,0.28516 -1.128906,0.56641 -1.695312,0.84766"
         id="path839" />
      <path
         style="fill:#3875c2;fill-opacity:1;fill-rule:nonzero;stroke:none;stroke-width:2.19909"
         d="m 56.660156,55.859375 c 1.398438,2.785156 2.777344,5.207031 3.859375,7.753906 1.824219,4.308594 3.472657,8.691407 5.179688,13.046875 0.535156,1.363282 1.03125,2.742188 1.542969,4.117188 1.367187,-0.910156 3.324218,-1.507813 3.992187,-2.78125 2.691406,-5.136719 5.128906,-10.421875 7.367187,-15.777344 1.316407,-3.15625 -0.04297,-4.585938 -3.546874,-5.3125 -3.769532,-0.777344 -7.277344,-2.785156 -10.933594,-4.164062 -1.382813,-0.523438 -3.1875,-1.492188 -4.210938,-1.011719 -1.316406,0.625 -2.046875,2.5 -3.25,4.128906 z m 3.1875,-9.0625 c 8.0625,3.039063 15.125,5.238281 21.640625,8.527344 1.421875,0.71875 1.855469,5.644531 1.054688,8.070312 -1.867188,5.652344 -4.648438,11.023438 -7.292969,16.394531 -1.738281,3.539063 -4.558594,6.140626 -8.8125,5.363282 -4.375,-0.796875 -4.445312,-4.59375 -5.214844,-8.15625 -0.789062,-3.667969 -2.714844,-7.078125 -4.011718,-10.648438 -1.414063,-3.890625 -3.40625,-7.761718 -3.800782,-11.773437 -0.417968,-4.261719 3.816406,-7.789063 6.4375,-7.777344"
         id="path841" />
    </g>
  </g>
</svg>
