<?xml version="1.0" standalone="no"?>
<!DOCTYPE svg PUBLIC "-//W3C//DTD SVG 20010904//EN"
 "http://www.w3.org/TR/2001/REC-SVG-20010904/DTD/svg10.dtd">
<svg version="1.0" xmlns="http://www.w3.org/2000/svg"
 width="1614.000000pt" height="96.000000pt" viewBox="0 0 1614.000000 96.000000"
 preserveAspectRatio="xMidYMid meet">
<g transform="translate(0.000000,96.000000) scale(0.100000,-0.100000)"
fill="#397AAB" stroke="none">
<path d="M3340 695 c-88 -20 -216 -85 -279 -141 l-52 -47 37 -38 c21 -22 43
-39 49 -39 6 0 24 14 41 31 16 17 56 46 89 64 184 102 399 87 571 -41 l31 -23
38 45 37 46 -22 16 c-64 48 -152 95 -210 113 -86 27 -242 34 -330 14z"/>
<path d="M1645 681 c-135 -22 -250 -74 -340 -155 l-50 -45 42 -42 41 -42 49
43 c176 157 461 167 649 23 l36 -27 39 44 38 45 -22 18 c-128 103 -331 161
-482 138z"/>
<path d="M5150 683 c-39 -6 -151 -44 -190 -63 -49 -25 -150 -101 -150 -114 0
-5 17 -27 37 -48 l37 -37 40 33 c185 151 466 155 644 9 l44 -36 41 42 42 42
-40 35 c-57 49 -188 112 -270 129 -66 14 -178 18 -235 8z"/>
<path d="M10 620 c0 -46 3 -60 15 -60 33 0 128 -44 184 -85 l59 -43 36 37 c20
20 36 40 36 44 0 27 -141 115 -235 147 -92 32 -95 30 -95 -40z"/>
<path d="M6925 654 c-90 -17 -218 -81 -284 -140 -28 -25 -51 -49 -51 -53 0 -4
18 -22 41 -40 l41 -33 36 31 c132 110 306 156 462 120 57 -13 161 -62 199 -95
l30 -25 40 43 41 43 -33 28 c-53 47 -185 106 -270 122 -94 18 -158 18 -252 -1z"/>
<path d="M8734 640 c-90 -12 -210 -63 -286 -121 -38 -28 -68 -54 -68 -58 0 -4
18 -24 39 -45 l39 -39 44 36 c186 151 441 155 641 9 l49 -35 40 41 41 41 -33
28 c-135 114 -326 168 -506 143z"/>
<path d="M10510 639 c-99 -19 -213 -78 -299 -156 l-44 -39 46 -38 47 -38 47
42 c177 156 475 163 650 16 l31 -26 36 44 c20 25 36 46 36 49 0 12 -123 88
-178 111 -110 44 -255 58 -372 35z"/>
<path d="M14105 629 c-127 -19 -248 -76 -335 -157 l-50 -47 46 -39 45 -39 37
35 c53 50 88 72 162 100 160 63 343 39 486 -64 l45 -32 34 39 c19 22 34 43 35
47 0 3 -17 19 -37 35 -125 97 -313 146 -468 122z"/>
<path d="M12251 609 c-40 -11 -92 -29 -115 -41 -60 -30 -166 -107 -166 -121 0
-6 16 -28 36 -49 l37 -37 41 34 c55 45 152 92 217 106 29 6 96 9 149 7 88 -4
104 -8 181 -46 46 -22 97 -53 113 -68 l28 -27 42 42 41 42 -39 35 c-142 124
-373 174 -565 123z"/>
<path d="M15875 616 c-127 -25 -257 -89 -322 -158 l-23 -24 40 -39 c30 -29 44
-37 54 -30 7 6 35 27 62 47 75 57 180 92 278 92 45 1 100 -2 124 -7 l42 -7 0
59 c0 53 -2 59 -23 65 -55 14 -167 15 -232 2z"/>
<path d="M2172 441 l-43 -38 52 -47 c223 -200 584 -210 813 -23 l30 24 -35 41
c-38 47 -49 50 -73 23 -28 -31 -167 -90 -240 -101 -140 -22 -318 31 -419 125
-21 19 -39 35 -40 35 -1 -1 -21 -18 -45 -39z"/>
<path d="M3945 444 l-40 -35 56 -52 c103 -95 267 -157 414 -157 131 0 301 58
389 134 l36 31 -41 43 -40 43 -31 -26 c-76 -64 -198 -105 -313 -105 -123 0
-231 39 -333 119 -28 23 -53 41 -54 41 -2 -1 -21 -17 -43 -36z"/>
<path d="M396 406 c-21 -18 -37 -38 -35 -43 2 -6 29 -32 59 -58 141 -120 345
-170 534 -130 106 23 286 116 286 149 0 5 -16 27 -37 48 l-36 37 -36 -28 c-48
-38 -105 -66 -176 -86 -87 -26 -238 -16 -324 19 -59 25 -161 92 -176 116 -9
15 -16 12 -59 -24z"/>
<path d="M5741 402 l-43 -38 51 -46 c221 -199 566 -212 809 -30 17 13 32 27
32 31 0 9 -65 81 -73 81 -4 0 -28 -15 -54 -33 -196 -137 -491 -116 -642 47
-14 14 -27 26 -31 26 -3 0 -25 -17 -49 -38z"/>
<path d="M7521 402 l-44 -38 54 -47 c187 -164 477 -204 694 -95 62 31 145 87
145 97 0 12 -61 81 -71 81 -6 0 -25 -11 -43 -25 -18 -13 -64 -39 -102 -57 -61
-28 -82 -32 -176 -36 -88 -3 -119 -1 -176 17 -69 21 -171 80 -206 119 -11 12
-22 22 -25 22 -4 0 -26 -17 -50 -38z"/>
<path d="M11110 390 l-44 -39 29 -31 c49 -52 155 -116 240 -146 71 -25 94 -28
200 -28 105 0 130 3 199 27 70 25 205 101 219 124 3 4 -12 28 -33 52 l-38 44
-33 -27 c-178 -150 -487 -136 -659 29 l-35 33 -45 -38z"/>
<path d="M14675 379 l-40 -41 40 -35 c81 -71 182 -124 290 -152 22 -6 86 -11
143 -11 89 0 117 4 195 31 91 30 190 87 211 121 9 15 4 25 -26 55 l-37 37 -43
-31 c-95 -68 -186 -97 -303 -97 -128 0 -228 36 -329 119 -31 25 -57 45 -59 45
-2 0 -21 -18 -42 -41z"/>
<path d="M9321 364 c-22 -20 -41 -40 -41 -45 0 -16 113 -99 183 -135 100 -51
181 -67 312 -61 137 6 216 30 319 97 85 55 85 59 28 113 l-29 28 -59 -40
c-111 -74 -255 -105 -376 -82 -81 16 -191 69 -249 120 l-46 40 -42 -35z"/>
<path d="M12901 341 l-44 -38 64 -53 c78 -65 178 -114 277 -136 176 -39 391 9
526 119 l30 24 -33 42 c-18 22 -37 41 -43 41 -5 0 -24 -11 -41 -24 -18 -14
-64 -40 -102 -57 -61 -29 -81 -33 -176 -37 -89 -4 -119 -1 -176 16 -70 22
-172 81 -207 120 -11 12 -22 22 -25 22 -3 0 -26 -18 -50 -39z"/>
</g>
</svg>
