<?xml version="1.0" encoding="UTF-8" standalone="no"?>
<!-- Created with Inkscape (http://www.inkscape.org/) -->

<svg
   width="88"
   height="88"
   viewBox="0 0 23.283333 23.283334"
   version="1.1"
   id="svg5"
   sodipodi:docname="fishery.svg"
   inkscape:version="1.1 (c68e22c387, 2021-05-23)"
   xmlns:inkscape="http://www.inkscape.org/namespaces/inkscape"
   xmlns:sodipodi="http://sodipodi.sourceforge.net/DTD/sodipodi-0.dtd"
   xmlns="http://www.w3.org/2000/svg"
   xmlns:svg="http://www.w3.org/2000/svg">
  <sodipodi:namedview
     id="namedview7"
     pagecolor="#ffffff"
     bordercolor="#666666"
     borderopacity="1.0"
     inkscape:pageshadow="2"
     inkscape:pageopacity="0.0"
     inkscape:pagecheckerboard="0"
     inkscape:document-units="mm"
     showgrid="false"
     units="px"
     inkscape:zoom="0.37059484"
     inkscape:cx="-400.70715"
     inkscape:cy="476.26136"
     inkscape:window-width="1920"
     inkscape:window-height="1017"
     inkscape:window-x="3832"
     inkscape:window-y="-8"
     inkscape:window-maximized="1"
     inkscape:current-layer="layer1" />
  <defs
     id="defs2">
    <clipPath
       id="clip1">
      <path
         d="M 0,0 H 476.28906 V 678.69922 H 0 Z m 0,0"
         id="path855" />
    </clipPath>
  </defs>
  <g
     inkscape:label="Layer 1"
     inkscape:groupmode="layer"
     id="layer1">
    <g
       id="surface105437"
       transform="matrix(0.03118711,0,0,0.03118711,4.214639,1.0583331)"
       style="stroke-width:11.3116">
      <g
         clip-path="url(#clip1)"
         clip-rule="nonzero"
         id="g862"
         style="stroke-width:26.7966">
        <path
           style="fill:#3875c2;fill-opacity:1;fill-rule:nonzero;stroke:none;stroke-width:11.3116"
           d="m 442.02344,261.97656 c -2.08985,-12.09765 -35.08203,-79.90625 -49.05469,-53.93359 8.90234,25.60156 14.04297,52.9414 12.45312,80.44531 -0.0391,8.10547 30.14454,7.80078 44.47657,17.39453 14.32812,9.59375 3.01953,-21.08984 -7.875,-43.90625 z M 86.769531,214.9375 C 65.601562,183.73437 19.632812,293.22656 21.832031,315.19141 27.15625,325.375 72.71875,305.625 71.59375,293.65625 70.941406,265.73828 80.542969,241.73047 86.769531,214.9375 Z M 214.58594,559.21484 c -61.10547,62.16797 -89.95703,99.89063 -89.95703,99.89063 l 230.39843,2.82422 c 0,0 -105.67968,-97.4961 -94.01562,-112.34766 C 377.89844,400.75391 410.35156,325.17578 371.96875,200.84766 358.26562,156.00781 269.11328,-15.722656 213.56641,33.976562 177.87109,66.910156 148.21875,105.52344 130.55469,150.87109 c -24.19141,36.6211 -21.75391,40.50782 18.91797,51.64063 48.40234,15.94922 105.47265,19.85937 148.6914,-12.81641 6.74219,-5 25.21485,-27.66406 24.94141,-7.1914 -51.51563,69.20312 -148.19531,48.53515 -216.17578,18.51953 -33.74219,76.17578 -21.67969,168.13281 16.0039,242.92968 23.17188,45.98829 58.34375,80.90235 91.65235,115.26172 z M 102.86328,659.94922 C 117.00391,632 208.86328,565.96875 194.50391,555.03125 147.61719,519.32812 113.73828,468.41016 89.746094,400.48437 62.257812,322.64844 110.55859,300.76562 10.359375,338.09375 -16.808594,347.52734 18.121094,288.57422 17.464844,276.38281 31.359375,237.51953 53.335938,197.76562 95.445312,188.48437 119.26563,115.71484 168.04297,41.726562 234.78516,0 c 51.76562,19.105469 84.83984,77.101562 116,120.98828 50.32812,122.72656 66.82031,8.3125 120.73828,186.33594 23.49218,52.53125 -46.38282,-3.34766 -68.23438,2.57812 -15.91015,90.21485 -63.02344,176.5625 -124.25781,246.54297 30.33203,37.35938 66.88281,70.70703 96.66016,108.03125 0.51171,22.58203 -67.04688,11.77344 -138.40625,10.72266 -71.35938,-1.05078 -145.69141,5.92969 -134.42188,-15.25"
           id="path860" />
      </g>
      <path
         style="fill:#3875c2;fill-opacity:1;fill-rule:nonzero;stroke:none;stroke-width:11.3116"
         d="m 193.27344,98.703125 c 3.28515,-26.914063 37.6875,-26.246094 39.64453,0.722656 -3.67969,23.761719 -36.48047,25.886719 -39.64453,-0.722656"
         id="path864" />
    </g>
  </g>
</svg>
