<?xml version="1.0" encoding="UTF-8" standalone="no"?>
<!-- Created with Inkscape (http://www.inkscape.org/) -->

<svg
   width="88"
   height="88"
   viewBox="0 0 23.283333 23.283334"
   version="1.1"
   id="svg5"
   sodipodi:docname="governance.svg"
   inkscape:version="1.1 (c68e22c387, 2021-05-23)"
   xmlns:inkscape="http://www.inkscape.org/namespaces/inkscape"
   xmlns:sodipodi="http://sodipodi.sourceforge.net/DTD/sodipodi-0.dtd"
   xmlns="http://www.w3.org/2000/svg"
   xmlns:svg="http://www.w3.org/2000/svg">
  <sodipodi:namedview
     id="namedview7"
     pagecolor="#ffffff"
     bordercolor="#666666"
     borderopacity="1.0"
     inkscape:pageshadow="2"
     inkscape:pageopacity="0.0"
     inkscape:pagecheckerboard="0"
     inkscape:document-units="mm"
     showgrid="false"
     units="px"
     inkscape:zoom="0.37059484"
     inkscape:cx="-400.70715"
     inkscape:cy="476.26136"
     inkscape:window-width="1920"
     inkscape:window-height="1017"
     inkscape:window-x="3832"
     inkscape:window-y="-8"
     inkscape:window-maximized="1"
     inkscape:current-layer="layer1" />
  <defs
     id="defs2">
    <clipPath
       id="clip1">
      <path
         d="M 0,0 H 476.28906 V 678.69922 H 0 Z m 0,0"
         id="path855" />
    </clipPath>
  </defs>
  <g
     inkscape:label="Layer 1"
     inkscape:groupmode="layer"
     id="layer1">
    <g
       id="surface193296"
       transform="matrix(0.15038806,0,0,0.15038806,-3.3047021,-1.4256686)"
       style="stroke-width:2.34578">
      <path
         style="fill:#3875c2;fill-opacity:1;fill-rule:nonzero;stroke:none;stroke-width:2.34578"
         d="m 155.47266,79.230469 c 0,-3.339844 0,-5.972657 0,-8.835938 -4.69922,0 -9.08204,0 -13.60547,0 0,3.15625 0,5.914063 0,8.835938 4.70703,0 8.96484,0 13.60547,0 z m -47.98828,-8.835938 c 1.40625,3.558594 1.85546,7.992188 3.71875,8.703125 3.39453,1.289063 7.625,0.367188 11.52734,0.367188 0,-3.539063 0,-6.167969 0,-9.070313 -4.69922,0 -9.08984,0 -15.24609,0 z m -30.85938,0.0078 c -1.824219,9.890625 0.316406,11.199218 13.183594,8.320312 0,-2.738281 0,-5.503906 0,-8.320312 -4.707032,0 -8.984375,0 -13.183594,0 z M 57.183594,70.078125 c -4.246094,0 -7.832032,-0.02344 -11.421875,0.01953 -0.675781,0.0078 -1.347657,0.285156 -1.9375,0.417969 -1.902344,9.65625 1.269531,11.53125 13.359375,8.046875 0,-2.597656 0,-5.222656 0,-8.484374 z m 51.953126,53.925785 c -1.21484,10.03515 2.26953,12.05078 13.48828,8.49218 0,-2.78515 0,-5.55859 0,-8.49218 -4.67969,0 -8.93359,0 -13.48828,0 z m -67.171876,-0.25782 c 1.40625,3.98438 1.730468,8.5625 3.558594,9.27344 3.386718,1.32031 7.652343,0.37891 11.492187,0.37891 0,-3.67188 0,-6.45703 0,-9.38672 -1.886719,-0.10547 -3.320313,-0.23438 -4.75,-0.25391 -2.714844,-0.0391 -5.429687,-0.0117 -10.300781,-0.0117 z m 98.792966,0.33594 c 2.29297,3.36328 -2.44922,8.14063 3.67578,9.25391 3.46485,0.625 7.13672,0.10937 11.03516,0.10937 0,-3.44531 0,-6.23437 0,-9.36328 -4.57813,0 -8.85547,0 -14.71094,0 z m -50.734372,0.14063 c -4.945313,0 -9.351563,0 -13.6875,0 -1.1875,9.97265 1.242187,11.41015 13.6875,8.39062 0,-2.60937 0,-5.29297 0,-8.39062 z m -2.386719,-5.07813 c 0,-11.79297 0,-23.152342 0,-36.121092 -3.597657,1.269531 -8.855469,2.136718 -8.921875,3.304687 -0.636719,10.8125 -0.375,21.675785 -0.375,32.816405 3.386718,0 6.050781,0 9.296875,0 z M 120.72266,84.039062 c -2.73438,0 -4.80078,-0.339843 -6.66797,0.121094 -1.16406,0.289063 -2.88281,1.761719 -2.90625,2.734375 -0.21485,9.777344 -0.10156,19.562499 -0.14063,29.343749 -0.0156,3.72656 2.58203,3.20313 4.91797,3.19531 2.33594,-0.0117 4.85938,0.51954 4.82813,-3.26562 -0.0937,-10.48047 -0.0312,-20.964845 -0.0312,-32.128908 z m -74.875004,0.289063 c 0,11.894531 0,23.218755 0,34.746095 3.214844,0 5.996094,0 9.046875,0 0,-11.72266 0,-23.070314 0,-34.746095 -2.953125,0 -5.769531,0 -9.046875,0 z M 153.11328,119.11719 c 0,-11.83594 0,-23.300784 0,-34.734378 -3.21094,0 -6.03125,0 -9.00781,0 0,11.71875 0,23.062498 0,34.734378 3.02344,0 5.67969,0 9.00781,0 z m 7.1875,23.32031 c 0.39844,-5.48438 -3.16406,-4.53516 -5.83594,-4.53906 -35.8789,-0.0352 -71.753902,-0.0234 -107.628902,-0.0195 -1.640626,0 -3.4375,-0.39454 -4.871094,0.15234 -1.4375,0.55078 -2.511719,2.05078 -3.746094,3.13281 0.359375,0.42578 0.714844,0.84766 1.070312,1.27344 40.167969,0 80.335938,0 121.011718,0 z m -126.785155,7.77734 c 0.375,0.45703 0.75,0.91797 1.121094,1.375 43.480469,0 86.964841,0 130.605471,0 -0.2461,-5.65234 -4.03907,-4.44922 -6.81641,-4.45312 -39.13672,-0.0547 -78.273436,-0.0391 -117.410155,-0.0352 -1.273437,0 -2.722656,-0.33984 -3.78125,0.14453 -1.398437,0.64453 -2.492187,1.94922 -3.71875,2.96875 z M 62.242188,70.246094 c -0.957032,9.230468 -2.554688,17.890625 -2.566407,26.546875 -0.01563,9.765621 1.644531,19.519531 2.101563,29.300781 0.382812,8.15625 0.890625,8.74609 8.753906,6.72266 1.140625,-5.44922 3.148438,-10.63282 3.132812,-15.8125 -0.03906,-15.52344 -0.867187,-31.046879 -1.394531,-46.757816 -4.167969,0 -6.84375,0 -10.027343,0 z M 103.4375,132.88672 c 4.45313,-20.75781 4.42188,-41.476564 0.0156,-62.531251 -2.53516,0 -5.339849,0 -8.441411,0 -0.921875,8.671875 -2.519531,17.132812 -2.539063,25.601562 -0.02344,9.953129 1.546875,19.898439 2.011719,29.871099 0.398437,8.49218 0.351563,8.66796 8.953125,7.05859 z m 24.35938,-62.527345 c -0.9375,8.925781 -2.54297,17.566406 -2.5625,26.210937 -0.0195,9.773438 1.60937,19.535158 2.09765,29.324218 0.42578,8.53125 0.44531,8.75391 8.86328,6.94922 4.49219,-20.77344 4.44141,-41.476562 0.0469,-62.484375 -2.5586,0 -5.35547,0 -8.44531,0 z M 41.300781,65.148438 c 39.300781,0 77.124999,0 115.621089,0 -0.95312,-1.140626 -1.3164,-1.785157 -1.85937,-2.191407 C 137.63672,49.835938 120.16016,36.773438 102.78125,23.589844 100.28516,21.695312 98.574219,21.929688 96.140625,23.785156 82.269531,34.371094 68.25,44.765625 54.296875,55.242188 c -3.992187,2.996093 -7.9375,6.046874 -12.996094,9.90625 z m -3.203125,5.128906 c -1.101562,-0.113282 -2.28125,0.01953 -3.226562,-0.394532 -1.03125,-0.453124 -2.554688,-1.390624 -2.570313,-2.144531 C 32.28125,66.785156 33.394531,65.578125 34.320312,64.875 44.59375,57.046875 54.917969,49.28125 65.25,41.53125 75.292969,33.992188 85.46875,26.628906 95.355469,18.894531 c 3.257812,-2.546875 5.457031,-2.199219 8.558591,0.152344 19.56641,14.847656 39.28906,29.488281 58.89844,44.28125 1.63281,1.234375 2.80859,3.070313 4.19922,4.625 -1.92969,1.007813 -3.85938,2.011719 -5.78516,3.015625 -0.57031,-0.175781 -1.13672,-0.351562 -1.70703,-0.527344 -0.5625,15.367188 -1.375,30.730474 -1.55859,46.105474 -0.0625,5.23437 0.82031,10.69531 2.43359,15.67578 1.42188,4.39843 4.50391,8.2539 6.76953,12.39062 0.92969,1.69531 2.03906,3.42969 2.37891,5.27344 0.86328,4.68359 -0.80078,6.78906 -6.11328,6.76562 -42.41406,-0.1875 -84.828128,-0.10156 -127.246096,-0.11718 -6.378906,0 -9.171875,-4.91016 -5.601563,-10.35547 4.769531,-7.27344 7.167969,-14.89453 8.84375,-23.64063 1.984375,-10.36718 1.277344,-20.4414 1.472657,-30.597654 C 41.03125,84.929688 39.15625,77.886719 38.097656,70.277344"
         id="path877" />
      <path
         style="fill:#3875c2;fill-opacity:1;fill-rule:nonzero;stroke:none;stroke-width:2.34578"
         d="M 88.574219,53.574219 C 93.15625,55.40625 94.988281,55.40625 98.535156,51.625 101.74219,48.1875 103.5,44.035156 104.04688,39.402344 c 0.19921,-1.691406 0.0312,-3.433594 0.0312,-5.40625 -5.753911,1.601562 -11.04688,3.425781 -15.429692,7.070312 -1.5625,1.300782 -2.878907,3.089844 -3.808594,4.910156 -1,1.957032 -0.75,4.121094 0.671875,6.351563 0.578125,-1.082031 0.953125,-1.789063 1.332031,-2.496094 2.550781,-4.765625 6.214844,-8.503906 10.730469,-11.40625 0.617187,-0.398437 1.550781,-0.308593 2.339843,-0.445312 -0.414062,0.660156 -0.710937,1.347656 -1.265624,1.859375 -2.3125,2.144531 -3.46875,4.027344 -5.492188,6.410156 -1.941406,2.277344 -2.964844,4.710938 -4.582031,7.324219 z m -3.726563,4.660156 c -2.992187,-1.894531 -2.605468,-3.0625 -4.15625,-8.792969 -1.054687,-3.894531 1.582032,-7.207031 4.503906,-9.777344 5.875,-5.171874 13.042969,-7.679687 20.445318,-9.671874 1.44531,-0.390626 1.96093,0.140624 2.28125,1.554687 1.83203,8.152344 -2.90625,20.363281 -9.777349,25.097656 -3.921875,2.703125 -8.175781,3.015625 -13.296875,1.589844"
         id="path879" />
    </g>
  </g>
</svg>
