<?xml version="1.0" encoding="UTF-8" standalone="no"?>
<!-- Created with Inkscape (http://www.inkscape.org/) -->

<svg
   width="88"
   height="88"
   viewBox="0 0 23.283333 23.283334"
   version="1.1"
   id="svg5"
   sodipodi:docname="MSP.svg"
   inkscape:version="1.1 (c68e22c387, 2021-05-23)"
   xmlns:inkscape="http://www.inkscape.org/namespaces/inkscape"
   xmlns:sodipodi="http://sodipodi.sourceforge.net/DTD/sodipodi-0.dtd"
   xmlns="http://www.w3.org/2000/svg"
   xmlns:svg="http://www.w3.org/2000/svg">
  <sodipodi:namedview
     id="namedview7"
     pagecolor="#ffffff"
     bordercolor="#666666"
     borderopacity="1.0"
     inkscape:pageshadow="2"
     inkscape:pageopacity="0.0"
     inkscape:pagecheckerboard="0"
     inkscape:document-units="mm"
     showgrid="false"
     units="px"
     inkscape:zoom="0.37059484"
     inkscape:cx="-400.70715"
     inkscape:cy="476.26136"
     inkscape:window-width="1920"
     inkscape:window-height="1017"
     inkscape:window-x="3832"
     inkscape:window-y="-8"
     inkscape:window-maximized="1"
     inkscape:current-layer="layer1" />
  <defs
     id="defs2">
    <clipPath
       id="clip1">
      <path
         d="M 0,0 H 476.28906 V 678.69922 H 0 Z m 0,0"
         id="path855" />
    </clipPath>
  </defs>
  <g
     inkscape:label="Layer 1"
     inkscape:groupmode="layer"
     id="layer1">
    <g
       id="surface226427"
       transform="matrix(0.14726638,0,0,0.14726638,-0.57194581,-1.9137365)"
       style="stroke-width:2.3955">
      <path
         style="fill:#3875c2;fill-opacity:1;fill-rule:nonzero;stroke:none;stroke-width:2.3955"
         d="m 15.34375,114.44531 c 0.671875,0 1.226562,0 1.78125,0 8.085938,0 16.183594,-0.30859 24.246094,0.1211 4.667968,0.24609 8.222656,-1.03907 11.203125,-4.42969 0.179687,-0.20313 0.324219,-0.43359 0.527343,-0.71094 -12.679687,0 -25.1875,0 -37.757812,0 0,1.65625 0,3.22656 0,5.01953 z m 89.60156,9.32813 c 5.27344,0 10.22266,0 15.17188,0 2.43359,0 2.43359,0 2.59375,-2.44531 0.0898,-1.33594 0.88672,-2.19922 2.05078,-2.21485 1.16797,-0.0156 2.02734,0.82031 2.12891,2.15625 0.0586,0.77735 0.008,1.5625 0.008,2.40625 1.46093,0 2.73437,0 4.23437,0 -0.92969,-2.78906 -1.85156,-5.41797 -2.67187,-8.07422 -0.41797,-1.35156 -1.21875,-2.10547 -2.59375,-2.42968 -3.17969,-0.75 -6.34375,-1.56641 -9.51172,-2.36719 -4.38281,-1.11328 -4.38281,-1.1211 -6.42188,2.96094 -1.62109,3.24609 -3.23437,6.49218 -4.98828,10.00781 z M 15.171875,105.13281 c 0.835937,0 1.386719,0 1.941406,0 11.691407,0 23.382813,-0.0156 35.078125,0.008 3.589844,0.004 7.148438,0.0898 10.617188,-1.20704 2.027344,-0.75781 4.203125,-1.125 6.328125,-1.67187 -0.710938,-1.82031 -1.585938,-2.378908 -3.117188,-2.10156 -2.289062,0.41015 -3.152343,-0.004 -4.347656,-2.089848 -1.53125,-2.683593 -4.46875,-3.417968 -7.082031,-1.773437 -2.046875,1.289063 -2.90625,1.253906 -4.808594,-0.191406 -1.175781,-0.886719 -2.285156,-0.890625 -3.453125,-0.0039 -1.90625,1.449219 -2.769531,1.503907 -4.804687,0.1875 -1.351563,-0.875 -2.824219,-1.175781 -4.277344,-0.589843 -2.15625,0.863281 -3.679688,0.355469 -5.144532,-1.429688 -2.460937,-3.003906 -5.753906,-4.171875 -9.539062,-3.191406 -3.804688,0.988281 -6.257812,3.558594 -6.996094,7.425781 -0.398437,2.082037 -0.273437,4.261727 -0.394531,6.628907 z m 87.558595,13.59766 c -0.59766,-0.0352 -0.91797,-0.0742 -1.23828,-0.0742 -18.33594,0 -36.675784,0 -55.011721,0.004 -0.417969,0 -0.847657,0.0117 -1.253907,0.10156 -1.265624,0.26562 -1.921874,1.10937 -2.015624,2.35937 -0.08984,1.20704 0.746093,2.26954 1.980468,2.53125 0.542969,0.11329 1.113282,0.11719 1.671875,0.11719 7.160157,0.008 14.316407,0.0195 21.472657,-0.004 1.839843,-0.008 3.523437,0.35546 4.960937,1.5625 2.148437,1.80078 2.96875,4.72656 2.0625,7.36718 -0.933594,2.72266 -3.375,4.51563 -6.421875,4.57813 -2.898438,0.0625 -5.800781,-0.004 -8.699219,0.0352 -0.632812,0.008 -1.347656,0.0859 -1.875,0.39063 -1.019531,0.58984 -1.464843,1.58203 -1.117187,2.76172 0.421875,1.42578 1.5,1.91797 2.910156,1.91797 13.609375,-0.008 27.222656,0 40.83594,-0.008 1.91797,-0.004 3.03125,-0.95703 3.04687,-2.53515 0.0156,-1.60938 -1.05468,-2.53125 -3.0039,-2.54297 -2.804691,-0.0117 -5.613285,0.0195 -8.417972,-0.008 -4.089844,-0.043 -7.113282,-2.90625 -7.140626,-6.72657 -0.02344,-3.84765 2.949219,-6.71875 7.054688,-6.77734 2.246094,-0.0273 4.492188,0.0273 6.734375,-0.0352 0.429687,-0.0117 1.046875,-0.26562 1.238285,-0.59765 0.78125,-1.36719 1.42968,-2.8086 2.22656,-4.41797 z M 28.691406,76.148438 c 1.90625,0 3.582032,-0.109376 5.234375,0.04687 0.738281,0.07031 1.667969,0.484376 2.09375,1.054688 1,1.359375 -0.152343,3.078125 -2.019531,3.09375 -3.648438,0.03516 -7.296875,-0.06641 -10.941406,0.06641 -0.910156,0.03516 -2.027344,0.523438 -2.644532,1.183594 -1.59375,1.699219 -2.960937,3.613281 -4.429687,5.433594 -0.785156,0.976562 -0.84375,2.042968 -0.5625,3.265625 6.804687,-5.34375 13.4375,-4.992188 19.703125,0.921875 0.230469,0.21875 0.667969,0.433594 0.933594,0.363281 2.757812,-0.730469 5.347656,-0.332031 7.726562,1.085937 2.679688,-1.769531 5.292969,-1.9375 8.015625,-0.363281 0.351563,0.203125 1.039063,0.05859 1.464844,-0.144531 4.117187,-1.964844 8.832031,-0.816406 11.46875,2.910156 0.472656,0.660156 0.917969,0.84375 1.710937,0.8125 2.1875,-0.09375 4.042969,0.753906 5.386719,2.480469 0.640625,0.828125 1.0625,1.824215 1.578125,2.746095 2.078125,-0.24219 3.660156,-0.86328 4.832032,-2.238282 3.429687,-4.011719 6.789062,-8.085938 10.011718,-11.9375 -2.121094,-6.453126 -7.273437,-8.453126 -13.257812,-9.480469 1.589844,2.734375 3.136718,5.394531 4.679687,8.050781 1.09375,1.882812 1.050781,3.070312 -0.128906,3.8125 C 78.28125,90.105469 77.1875,89.582031 76.042969,87.621094 71.3125,79.511719 66.570312,71.40625 61.867188,63.28125 61.1875,62.105469 60.34375,61.398438 58.964844,61.140625 54.375,60.289062 49.808594,59.308594 45.222656,58.433594 c -3.53125,-0.675782 -6.230468,0.554687 -8.082031,3.613281 -2.101563,3.476563 -4.183594,6.96875 -6.277344,10.453125 -0.6875,1.148438 -1.367187,2.296875 -2.171875,3.648438 z M 11.070312,87.375 c 1.546876,-3.636719 4.367188,-6.351562 6.832032,-9.3125 1.179687,-1.421875 2.941406,-1.972656 4.800781,-1.894531 0.824219,0.03125 1.246094,-0.285157 1.648437,-0.964844 2.953126,-4.988281 5.945313,-9.949219 8.929688,-14.914063 3.121094,-5.195312 7.511719,-7.097656 13.417969,-5.878906 4.390625,0.910156 8.785156,1.800782 13.191406,2.625 2.414063,0.453125 4.195313,1.65625 5.414063,3.804688 1.863281,3.289062 3.828124,6.527344 5.699218,9.816406 0.464844,0.828125 1.03125,1.320312 1.964844,1.585938 2.960938,0.851562 5.871094,1.882812 8.84375,2.6875 3.433594,0.929687 6.035156,2.859374 7.859375,5.894531 0.472656,0.785156 1.019531,1.53125 1.625,2.4375 1.136719,-1.363281 2.207031,-2.589844 3.214844,-3.867188 4.105469,-5.199219 9.531251,-7.808593 16.070311,-8.265625 1.46875,-0.105468 2.51563,0.65625 2.625,1.910156 0.10547,1.175782 -0.7539,2.179688 -2.15234,2.261719 -5.94922,0.347657 -10.46875,3.085938 -14.144534,7.734375 -4.722656,5.980469 -9.742187,11.726563 -14.589844,17.605474 -1.886718,2.28906 -4.183593,3.78515 -7.085937,4.46484 -4.136719,0.97266 -8.265625,1.98047 -12.355469,3.12109 -1.308594,0.36328 -2.597656,1.05469 -3.699218,1.85938 -1.679688,1.22656 -3.1875,2.68359 -4.683594,4.35937 0.480468,0 0.964844,0 1.449218,0 15.808594,0 31.617188,-0.0117 47.425778,0.0273 1.14454,0.004 1.79297,-0.3125 2.22657,-1.37891 0.49218,-1.20703 1.12109,-2.36328 1.74218,-3.51172 1.54688,-2.86719 4.38672,-4.19531 7.54688,-3.44531 4.17969,0.99219 8.33984,2.05859 12.50391,3.10937 2.28906,0.57813 3.84374,1.98438 4.77734,4.16407 0.1875,0.4375 0.78515,0.98437 1.19922,0.99218 5.5664,0.0586 11.13281,0.0312 16.69922,0.0195 0.1289,0 0.2539,-0.0703 0.52343,-0.14844 0,-0.4375 0,-0.89453 0,-1.35156 0,-10.38282 -0.0195,-20.76563 0.0195,-31.148442 0.004,-1.363282 -0.36328,-2.429688 -1.36718,-3.359376 -1.30469,-1.203124 -2.55078,-2.472656 -3.77735,-3.757812 -1.84375,-1.941406 -4.07422,-2.722656 -6.71875,-2.421875 -5.38672,0.613281 -10.77343,1.214844 -16.16015,1.816406 -0.46485,0.05078 -0.92969,0.117188 -1.39844,0.132813 -1.44141,0.05078 -2.375,-0.667969 -2.48437,-1.886719 -0.10938,-1.179687 0.75781,-2.140625 2.14062,-2.300781 2.64844,-0.304688 5.29688,-0.578125 7.94531,-0.871094 2.97266,-0.328125 5.94922,-0.617188 8.91406,-1.011719 4.17579,-0.554687 7.76954,0.5 10.73438,3.558594 1.30078,1.34375 2.74609,2.5625 3.92969,3.996094 0.96093,1.160156 1.63281,2.554687 2.43359,3.847656 0,23.671875 0,47.347655 0,71.019535 -0.91016,2.64843 -2.6875,4.42968 -5.33594,5.33593 -38.64453,0 -77.289059,0 -115.937496,0 -0.757813,-0.71093 -1.582032,-1.48828 -1.117188,-2.60547 0.25,-0.60937 0.878906,-1.16406 1.476563,-1.49609 0.4375,-0.24609 1.097656,-0.10937 1.65625,-0.10937 37.144531,0 74.289061,0 111.433591,0 2.83985,0 3.61328,-0.75391 3.61328,-3.53516 0,-9.3125 0,-18.62109 0,-27.92969 0,-0.45703 0,-0.91797 0,-1.40234 -5.59375,0 -11.0625,0 -16.60937,0 0.18359,0.59375 0.375,1.02734 0.45703,1.48437 0.44141,2.4336 1.38672,4.21485 4.35156,3.51954 0.0859,-0.0195 0.1875,0.008 0.27735,0.0273 1.05468,0.19922 1.66406,0.83203 1.72656,1.90234 0.0664,1.0625 -0.42969,1.82813 -1.46875,2.10157 -0.57422,0.14843 -1.20313,0.14843 -1.80469,0.14843 -14.64453,0.008 -29.28515,0.008 -43.929686,0.008 -0.558594,0 -1.230469,-0.16407 -1.65625,0.082 -0.789063,0.45703 -1.734375,1.02343 -2.078125,1.78515 -0.714844,1.59375 0.722656,3.19141 2.757812,3.21875 2.851563,0.0391 5.707031,-0.004 8.562499,0.0156 4.14063,0.0273 7.07422,2.8164 7.08203,6.70703 0.008,3.875 -2.96093,6.77734 -7.04687,6.78515 -13.707034,0.0156 -27.414065,0.0156 -41.121096,0 -4.136719,-0.004 -7.210938,-2.96875 -7.167969,-6.83593 0.03906,-3.83594 3.046875,-6.63282 7.171875,-6.65625 2.851562,-0.0195 5.707031,0.0234 8.558594,-0.0156 1.9375,-0.0312 3.082031,-1.32031 2.796875,-3.03125 -0.226563,-1.35547 -1.21875,-2.04687 -3.042969,-2.05078 -7.15625,-0.008 -14.3125,0 -21.472656,-0.008 -0.746094,-0.004 -1.5,-0.0273 -2.234375,-0.13672 -2.945313,-0.42578 -5.222657,-2.67969 -5.597657,-5.64062 -0.144531,-1.125 -0.02344,-2.28516 -0.02344,-3.47266 -7.78125,0 -15.714844,0 -23.6875,0 -0.04297,0.24219 -0.101563,0.41797 -0.101563,0.59375 -0.0039,9.87109 -0.01562,19.74219 0.0039,29.61328 0.0039,1.71094 1.007812,2.67969 2.730469,2.71094 2.101562,0.0391 4.207031,0.008 6.3125,0.0156 1.105468,0 1.894531,0.47266 2.199218,1.57422 0.328125,1.17969 -0.398437,1.91406 -1.148437,2.63281 -2.992188,0 -5.988281,0 -8.980469,0 -2.648438,-0.90625 -4.433594,-2.68359 -5.335938,-5.33593 0,-21.05469 0,-42.10547 0,-63.16016"
         id="path891" />
      <path
         style="fill:#3875c2;fill-opacity:1;fill-rule:nonzero;stroke:none;stroke-width:2.3955"
         d="m 124.95703,51.488281 c 4.16406,0 8.32422,0.02344 12.48828,-0.01172 2.04297,-0.01562 3.62891,-1.304687 3.98438,-3.09375 0.33203,-1.695312 -0.58985,-3.332031 -2.44141,-4.101562 -1.28125,-0.53125 -1.98437,-1.414062 -2.375,-2.726562 -0.73047,-2.457032 -2.39844,-4.003907 -4.95703,-4.363282 -2.61328,-0.363281 -4.64453,0.660156 -6.06641,2.902344 -1.22656,1.933594 -2.19921,2.234375 -4.49218,1.828125 -0.73828,-0.132813 -1.88672,-0.01953 -2.30078,0.460937 -1.34375,1.550782 -2.97657,1.773438 -4.81641,1.664063 -0.60547,-0.03906 -1.21875,-0.02344 -1.82031,0.03906 -2.26563,0.238281 -3.71875,1.800781 -3.62891,3.859374 0.0898,2.0625 1.66016,3.515626 3.9375,3.535157 4.16016,0.03125 8.32422,0.0078 12.48828,0.0078 z m 20.74219,-2.210937 c -0.69141,1.246094 -1.23047,2.621094 -2.11328,3.710937 -1.48438,1.839844 -3.58203,2.6875 -5.9336,2.695313 -8.51172,0.03125 -17.01953,0.05469 -25.53125,-0.0039 -4.29687,-0.03125 -7.63281,-3.367188 -7.8164,-7.617188 -0.17969,-4.042969 2.87109,-7.578125 7,-8.117188 0.27734,-0.03516 0.55859,-0.101562 0.83594,-0.08594 1.80078,0.101563 3.35156,-0.230469 4.92968,-1.363281 1.05078,-0.757813 2.73047,-0.625 4.1211,-0.933594 0.47265,-0.105469 1.08203,-0.210938 1.34765,-0.542969 5.30469,-6.550781 14.61719,-5.183593 17.90235,2.648438 0.13671,0.324219 0.33203,0.742187 0.61328,0.871093 2.48437,1.128907 3.76953,3.214844 4.64453,5.648438 0,1.03125 0,2.058594 0,3.089844"
         id="path893" />
      <path
         style="fill:#3875c2;fill-opacity:1;fill-rule:nonzero;stroke:none;stroke-width:2.3955"
         d="m 77.289062,51.609375 c 5.320313,0.03125 9.679688,-4.300781 9.664063,-9.597656 -0.01563,-5.234375 -4.332031,-9.550781 -9.566406,-9.574219 -5.304688,-0.02344 -9.675781,4.332031 -9.65625,9.617188 0.01953,5.261718 4.289062,9.527343 9.558593,9.554687 z m 1.851563,-23.386719 c 3.25,0.738282 6.175781,2.035156 8.457031,4.589844 4.207032,4.710938 4.730469,11.628906 1.21875,16.878906 -3.546875,5.300782 -10.199218,7.480469 -16.191406,5.296875 -5.945312,-2.164062 -9.632812,-8.035156 -9,-14.320312 0.609375,-6.042969 4.957031,-10.867188 10.953125,-12.160157 0.3125,-0.06641 0.609375,-0.1875 0.914063,-0.285156 1.214843,0 2.429687,0 3.648437,0"
         id="path895" />
      <path
         style="fill:#3875c2;fill-opacity:1;fill-rule:nonzero;stroke:none;stroke-width:2.3955"
         d="m 38.722656,137.30469 c -0.792968,0 -1.589844,-0.0391 -2.378906,0.008 -1.390625,0.082 -2.398438,1.08984 -2.460938,2.39453 -0.0625,1.26172 0.902344,2.51563 2.246094,2.60547 1.71875,0.11719 3.453125,0.11328 5.175782,0.0117 1.371093,-0.0781 2.328124,-1.2461 2.3125,-2.53906 -0.01172,-1.35547 -1.050782,-2.40235 -2.515626,-2.47657 -0.789062,-0.043 -1.585937,-0.008 -2.378906,-0.004 z m 0.15625,-4.21875 c 0.746094,0 1.492188,-0.0156 2.242188,0.004 3.789062,0.0977 6.6875,2.98047 6.714844,6.67188 0.02344,3.66406 -2.863282,6.66406 -6.613282,6.80469 -1.679687,0.0625 -3.363281,0.0703 -5.042968,-0.008 -3.679688,-0.17187 -6.535157,-3.16797 -6.519532,-6.76172 0.01563,-3.66406 2.941406,-6.60156 6.695313,-6.70312 0.839843,-0.0234 1.679687,-0.004 2.523437,-0.008"
         id="path897" />
    </g>
  </g>
</svg>
