<?xml version="1.0" encoding="UTF-8" standalone="no"?>
<!-- Created with Inkscape (http://www.inkscape.org/) -->

<svg
   width="88"
   height="88"
   viewBox="0 0 23.283333 23.283334"
   version="1.1"
   id="svg5"
   sodipodi:docname="pollution.svg"
   inkscape:version="1.1 (c68e22c387, 2021-05-23)"
   xmlns:inkscape="http://www.inkscape.org/namespaces/inkscape"
   xmlns:sodipodi="http://sodipodi.sourceforge.net/DTD/sodipodi-0.dtd"
   xmlns="http://www.w3.org/2000/svg"
   xmlns:svg="http://www.w3.org/2000/svg">
  <sodipodi:namedview
     id="namedview7"
     pagecolor="#ffffff"
     bordercolor="#666666"
     borderopacity="1.0"
     inkscape:pageshadow="2"
     inkscape:pageopacity="0.0"
     inkscape:pagecheckerboard="0"
     inkscape:document-units="mm"
     showgrid="false"
     units="px"
     inkscape:zoom="0.37059484"
     inkscape:cx="-400.70715"
     inkscape:cy="476.26136"
     inkscape:window-width="1920"
     inkscape:window-height="1017"
     inkscape:window-x="3832"
     inkscape:window-y="-8"
     inkscape:window-maximized="1"
     inkscape:current-layer="layer1" />
  <defs
     id="defs2">
    <clipPath
       id="clip1">
      <path
         d="M 0,0 H 476.28906 V 678.69922 H 0 Z m 0,0"
         id="path855" />
    </clipPath>
  </defs>
  <g
     inkscape:label="Layer 1"
     inkscape:groupmode="layer"
     id="layer1">
    <g
       id="surface257319"
       transform="matrix(0.1508094,0,0,0.1508094,-0.9967354,-1.8511222)"
       style="stroke-width:2.33923">
      <path
         style="fill:#3875c2;fill-opacity:1;fill-rule:nonzero;stroke:none;stroke-width:2.33923"
         d="m 26.050781,32.027344 c 1.007813,-2.238282 7.71875,-4.835938 4.261719,-7.121094 -2.050781,0.8125 -8.410156,5.308594 -4.261719,7.121094 z M 63.785156,48.703125 C 62.300781,51.132812 44,64.683594 51.675781,63.867188 54.023438,60.480469 68.304688,51.808594 63.785156,48.703125 Z M 44.578125,59.226562 c 3.554687,0.371094 5.289063,-3.804687 7.921875,-5.65625 1.753906,-3.019531 8.957031,-5.667968 7.289062,-9.230468 -4.472656,0.203125 -7.195312,5.816406 -10.65625,8.324218 -2.109374,1.890626 -5.132812,3.34375 -4.554687,6.5625 z m -2.707031,-5 C 45.269531,49.230469 54.511719,45.511719 54.703125,39.53125 48.75,33.292969 45.859375,30.039062 36.972656,30.460938 c -2.546875,-2.105469 -4.527344,1.535156 -6.441406,2.910156 -1.511719,1.480468 -0.402344,3.90625 -0.164062,5.320312 -0.269532,10.546875 4.824218,2.988282 10.171874,7.25 0.355469,4.960938 -3.257812,2.246094 -6.859374,2.71875 2.6875,1.976563 5.101562,6.519532 8.191406,5.566406 z M 68.511719,80.34375 c 14.433593,-15.460938 18.929687,-10.425781 1.230469,-26.363281 -5.484376,1.550781 -9.9375,9.03125 -14.722657,12.867187 -1.660156,2.320313 11.066407,13.546875 13.492188,13.496094 z M 25.464844,55.933594 c -1.703125,2.9375 -12.25,7.898437 -11.683594,1.941406 0.921875,-1.949219 3.667969,-1.367188 5.398438,-2.367188 3.636718,-1.691406 5.25,-5.371093 7.894531,-8.136718 0.648437,-4.171875 -1.503907,-7.414063 -1.53125,-11.726563 -2.433594,0.433594 -4.054688,-1.78125 -5.261719,-3.507812 -1.078125,-5.769531 7.585938,-14.15625 13,-10.398438 2.6875,1.441407 1.914062,5.75 5.867188,4.691407 9.40625,0.550781 11.488281,2.457031 18.019531,9.574218 3.539062,3.292969 0.390625,3.140625 5.773437,5.5 2.859375,4.507813 0.925782,2.171875 4.800782,4.726563 17.625,-10.808594 19.234374,24.359375 35.046872,3.398437 3.84766,-6.242187 12.85547,-6.777344 18.19141,-2.261718 3.88281,4.335937 8.73828,12.480468 15.66797,7.578124 3.73828,-3.183593 6.47265,-8.164062 10.74609,-9.878906 2.14453,-1.042968 8.83203,-1.113281 5.60547,2.941406 -5.50781,0.5 -8.73828,4.863282 -11.89453,9.054688 -4.05469,3.441406 -11.5625,5.492188 -15.97656,0.796875 -5.07813,-3.074219 -6.97266,-11.089844 -14.52735,-9.234375 -5.2539,2.796875 -7.49218,9.0625 -13.152341,11.320312 C 84.101562,64.839844 83.09375,46.847656 71.464844,48.628906 73.226562,55.976562 96.828125,64.195312 80.921875,74.152344 76.082031,77.792969 72.414062,85.402344 65.625,84.457031 55.558594,75.90625 47.167969,67.078125 39.277344,58.40625 32.6875,56.640625 30.84375,45.601562 25.464844,55.933594"
         id="path911" />
      <path
         style="fill:#3875c2;fill-opacity:1;fill-rule:nonzero;stroke:none;stroke-width:2.33923"
         d="m 116.47656,126.73438 c 1.54688,1.11328 5.73438,2.91796 7.56641,0.9414 0.27734,-1.7539 1.64062,-3.57422 1.85937,-5.69922 0.58594,-0.41015 0.79688,-0.50781 0.67969,-1.22656 2.86328,-7.49219 6.24219,-15.10937 8.89063,-22.765625 2.19531,-5.433594 4.64062,-10.761719 6.36718,-16.363281 1.23438,-1.511719 -3.60547,-2.089844 -3.01172,1 -6.26562,16.960937 -7.01171,14.78125 -22.54296,8.585937 -3.34375,-1.140625 -8.88672,-1.710937 -9.81641,-5.804687 -1.42969,-1.320313 -0.21484,-2.625 0.0547,-3.742188 0.33203,-4.335937 7.78515,-11.535156 1.83984,-13.179687 -2.57812,8.53125 -6.04687,17.835937 -10.035155,25.773437 4.785155,1.632813 6.363285,6.953124 10.367185,9.511724 1.26172,0.90625 2.875,1.41796 4.4375,1.46093 4.34375,1.46485 0.35938,5.25 -2.96093,3.96094 -5.67188,-1.52344 -8.35547,-7.00391 -12.492192,-10.414062 -1.496094,0.207031 -7.539063,16.238282 -6.953126,18.574222 8.417969,3.67187 16.999998,6.60547 25.749998,9.38672 z M 24.542969,103.37891 c -1.914063,-2.3086 -3.582031,-5.136722 -6.671875,-5.964848 -3.417969,1.269532 -6.5625,-3.984374 -1.871094,-4.074218 9.214844,-1.335938 11.476562,12.542966 20.257812,11.863286 4.921876,-0.80079 6.863282,-5.750005 10.140626,-8.60938 7.273437,-7.324219 16.039062,-2.183594 21.089843,4.76563 10.386719,12.29687 14.78125,-7.871099 24.917969,-8.449224 0.363281,-0.488281 1.632812,0.183594 2.132812,0.460938 0.484376,-2.421875 1.746094,-4.355469 2.425782,-6.582032 2.863281,-6.304687 4.765626,-12.976562 7.746096,-19.117187 0.73437,-6.863281 7.78515,-1.800781 11.39453,-0.230469 -0.33984,4.152344 -2.46484,8.1875 -4.21484,11.976563 -0.25782,2.386719 -3.14063,5.386719 0.46484,5.992187 5.50781,2.078125 11.51953,4.003906 16.93359,6.078125 3.82422,1.351563 5.70703,-19.628906 10.57031,-15.75 3.08204,0.566407 10.08594,2.410157 6.54297,6.410157 -0.97656,4.605468 -6.90234,12.785156 -4.3164,15.980468 2.1289,1.320313 2.87109,4.472654 5.625,5.359374 1.36718,1.71094 9.12109,1.04297 5.14843,5.29688 -8.35156,3.42968 -13.51953,-12.605472 -14.78515,-5.32032 -3.13281,8.08594 -5.94141,15.31641 -9.42188,23.61719 -2.73828,9.89453 -12.74218,3.35547 -19.47656,1.55469 -8.89062,-4.73828 -30.64453,-5.35938 -20.414061,-20.31641 -0.08203,-2.82422 6.765625,-12.97656 1.714843,-10.441404 C 83.964844,102.55469 78.042969,113.79688 68.472656,107.69922 63.484375,105.27344 61.886719,98.9375 56.625,97.414062 45.1875,94.835938 41.679688,121.24219 24.542969,103.37891"
         id="path913" />
      <path
         style="fill:#3875c2;fill-opacity:1;fill-rule:nonzero;stroke:none;stroke-width:2.33923"
         d="m 139.03125,150.54687 c 1.05859,-2.94921 3.99609,-5.41406 6.63281,-7.33984 2.53516,-1.08594 8.38672,-3.6875 8.07031,1.14063 -0.17187,1.91406 -2.33984,0.9375 -3.46484,1.74218 -5.17187,0.71875 -6.76562,6.59375 -10.57422,9.46875 -17.63281,10.6836 -20.0039,-19.25 -33.12109,-6.69922 -1.67969,2.39454 -3.96094,5.47266 -6.652345,6.96094 -1.078125,1.30469 -3.0625,0.69141 -2.8125,1.76172 -5.691406,0.55859 -10.601563,-0.63672 -13.988281,-5.20703 -2.902344,-5.14453 -10.675782,-10.16016 -15.003906,-3.46484 -2.5,2.82421 -5.566407,6.46484 -9.398438,8.51562 -0.847656,0.58984 -2.472656,-0.47266 -3.042969,0.58203 -0.09375,0.31641 -2.0625,-0.0312 -2.421875,-0.1914 -6.902344,-0.49219 -9.582031,-8.10938 -15.300781,-11.50391 -7.6875,-3.3125 -10.316406,7.06641 -16,10.00781 -2.789063,1.31641 -8.746094,3.60156 -8.230469,-1.50781 2.445313,-1.41797 5.332032,-0.87109 7.175782,-3.43359 3.867187,-3.27735 6.941406,-9.55079 12.683593,-9.26563 3.855469,-2.42578 10.378907,2.74609 12.847657,6.16406 17.644531,21.60938 15.867187,-27.58593 43.792968,4.53516 6.90625,4.55859 11.476564,-6.08203 16.417974,-9.51563 17.13671,-9.16015 18.0664,19.5625 32.39062,7.25"
         id="path915" />
      <path
         style="fill:#3875c2;fill-opacity:1;fill-rule:nonzero;stroke:none;stroke-width:2.33923"
         d="m 125.73438,106.84766 c 6.07031,-1.35547 -1.82032,11.97656 -2.6836,15.125 -0.97265,4.27734 -10.91015,3.11718 -10.09765,-1.20313 1.71484,-2.37109 4.05078,-0.54687 6.38671,-0.12109 1.80469,-4.21485 2.91407,-11.59375 6.39454,-13.80078"
         id="path917" />
    </g>
  </g>
</svg>
