<?xml version="1.0" encoding="UTF-8" standalone="no"?>
<!-- Created with Inkscape (http://www.inkscape.org/) -->

<svg
   width="88"
   height="88"
   viewBox="0 0 23.283333 23.283334"
   version="1.1"
   id="svg5"
   sodipodi:docname="sustainability.svg"
   inkscape:version="1.1 (c68e22c387, 2021-05-23)"
   xmlns:inkscape="http://www.inkscape.org/namespaces/inkscape"
   xmlns:sodipodi="http://sodipodi.sourceforge.net/DTD/sodipodi-0.dtd"
   xmlns="http://www.w3.org/2000/svg"
   xmlns:svg="http://www.w3.org/2000/svg">
  <sodipodi:namedview
     id="namedview7"
     pagecolor="#ffffff"
     bordercolor="#666666"
     borderopacity="1.0"
     inkscape:pageshadow="2"
     inkscape:pageopacity="0.0"
     inkscape:pagecheckerboard="0"
     inkscape:document-units="mm"
     showgrid="false"
     units="px"
     inkscape:zoom="2.096401"
     inkscape:cx="-7.3936237"
     inkscape:cy="115.19743"
     inkscape:window-width="1920"
     inkscape:window-height="1017"
     inkscape:window-x="3832"
     inkscape:window-y="-8"
     inkscape:window-maximized="1"
     inkscape:current-layer="layer1" />
  <defs
     id="defs2">
    <clipPath
       id="clip1">
      <path
         d="M 0,0 H 476.28906 V 678.69922 H 0 Z m 0,0"
         id="path855" />
    </clipPath>
  </defs>
  <g
     inkscape:label="Layer 1"
     inkscape:groupmode="layer"
     id="layer1">
    <g
       id="surface296406"
       transform="matrix(0.14889611,0,0,0.14889611,-0.6106383,-0.95851617)"
       style="stroke-width:2.3693">
      <path
         style="fill:#3875c2;fill-opacity:1;fill-rule:nonzero;stroke:none;stroke-width:2.3693"
         d="m 120.375,108.30859 c 4.65234,-9.15234 -0.89844,-1.41406 -5.64062,-4.55468 -0.1836,2.27734 -2.11329,3.70703 -2.86719,6.11328 -7.31641,7.73437 6.94531,3.59375 8.50781,-1.5586 z M 72.652344,38.46875 c 0.53125,9.546875 16.21875,11.515625 18.625,1.816406 2.335937,-3.996094 -15.242188,-0.894531 -18.625,-1.816406 z m 48.117186,61.67969 c 6.69141,-2.785159 0.48828,-16.562502 -1.67187,-21.035159 -3.1875,10.09375 -17.19922,14.414063 -18.21875,23.687499 -0.33203,3.15235 1.04687,7.69922 4.0625,8.91016 1.48828,1.62109 1.10547,-1.35156 2.54297,-1.48047 2.79296,-4.60547 -0.90235,-3.375 -2.49219,-7.79297 -1.83985,-3.066406 -2.08594,-5.316406 2.34765,-4.605469 0.22266,3.124999 3.625,8.597659 4.92579,2.960939 1.00781,-0.125 0.33593,-1.250001 0.66015,-1.738282 1.07031,-1.820313 1.44141,-4.449219 2.32813,-6.238282 -0.71094,-2.859375 3.17968,-5.535156 3.67187,-1.699218 0.875,4.203124 -6.22656,11.976562 1.84375,9.031252 z M 51.085938,110.8125 c 2.9375,1.07422 1.59375,5.33203 1.871093,7.65234 4.242188,4.39454 3.515625,-5.49609 12.941407,-2.26562 2.710937,1.24219 2.546874,5.10937 5.902343,3.19141 2.070313,-2.14454 -1.144531,-7.85938 4.816407,-9.71875 2.878906,-1.79688 6.117187,1.58984 7.277343,-2.9961 -1.28125,-1.88281 -3.820312,-2.65234 -4.105469,-5.05469 -1.707031,-7.914059 5.847657,-6.523434 3.554688,-12.097652 -2.726562,-0.01953 -5.917969,0.09375 -7.988281,-1.238282 -2.109375,-2.484375 -2.992188,-5.828125 -1.664063,-8.882812 -2.351562,-1.089844 -3.984375,-1.804688 -5.042968,1.132812 -2.308594,2.578125 -7.179688,2.449219 -9.730469,0.191406 -3.117188,-2.761718 -0.734375,-3.292968 -5.429688,-1.9375 0.3125,3.796876 0.1875,8.230469 -3.863281,9.492188 -3.019531,2.183594 -6.9375,-1.804688 -7.335938,3.351562 0.773438,0.07422 0.761719,1.808594 1.902344,1.320313 0.925782,0.609375 0.96875,1.761719 1.554688,2.21875 1.03125,0.714844 1.089844,5.718755 0.113281,6.308595 -0.390625,2.83594 -4.230469,2.55859 -3.769531,5.17969 1.230468,0.13281 0.332031,1.26953 0.890625,1.77734 2.773437,0.21094 7.5,-0.66016 8.105469,2.375 z M 98.257812,97.722656 c 1.390626,-3.609375 -9.566406,-0.789062 -12.710937,-1.632812 -1.65625,1.285156 -2.984375,3.890625 -1.40625,5.656246 1.511719,1.81641 5.488281,2.56641 3.59375,5.60157 -3.464844,13.21484 -12.523437,-2.625 -11.410156,12.86718 -0.390625,2.90625 -4.707031,2.39063 -6.742188,3.92969 -5.636719,-0.32031 -4.148437,-11.41406 -12.757812,0.25 -0.546875,-1.28125 -2.050781,0.0625 -2.425781,-1.35547 -2.046876,-0.0391 -2.972657,-1.77734 -5.320313,-1.82031 -1.421875,-2.16797 1.355469,-6.11719 0.140625,-6.56641 -2.148438,-6.53906 -7.875,3.01954 -10.617188,-7.54296 -0.242187,-1.11329 -1.058593,-1.94141 -0.925781,-3.17188 13.886719,-8.101562 -3.808593,-7.570312 1.886719,-15.199219 1.433594,-5.972656 3.25,-3.488281 8.171875,-3.585937 6.160156,-3.332032 -3.339844,-7.976563 8.128906,-11.261719 1.292969,-1.144531 4.238281,0.957031 4.210938,2.726563 3.730469,4.535156 6.652343,0.410156 9.265625,-2.847657 1.980468,0.292969 4.144531,2 6.355468,2.421875 5.554688,4.160156 -5.203124,10.902344 8.855469,9.636719 2.378907,0.847656 2.582031,4.421875 3.785157,6.546875 3.101562,-0.703125 9.902343,1.503906 11.1875,-1.011719 0.136718,-12.199219 -0.269532,-24.484375 0.144531,-36.644531 3.738281,-1.742188 5.222661,3.652344 8.054691,5.15625 13.5039,-5.800781 4.23047,-12.429688 -5.24219,-18.339844 -8.593751,-4.886718 -5.750001,-0.613281 -10.32422,4.71875 -3.984375,4.277344 -12.046875,5.960938 -16.074219,2.433594 -4.136719,-1.058594 -6.664062,-5.613281 -7.066406,-9.535156 -1.25,-0.339844 -1.847656,0.742187 -3.28125,0.449218 -0.25,0.890626 -2.085937,1.292969 -3.050781,1.289063 -1.066406,0.929687 -2.457032,2.050781 -4.152344,2.460937 -3.671875,2.742188 -6.71875,6.375 -9.785156,9.789063 7.320312,6.535156 5.757812,10.246094 13.167968,1.484375 5.808594,-2.683594 1.945313,13.515625 2.992188,17.261719 -5.183594,6.628906 -3.394531,-8.519531 -3.632812,-11.3125 -6.289063,7.691406 -7.703126,2.503906 -13.183594,-2.601563 -7.289063,-4.960937 0.121094,-8.929687 3.546875,-13.492187 4.539062,-4.386719 10.882812,-7.394531 16.449219,-9.167969 11.691406,1.113281 25.582031,-2.882812 35.343752,2.960938 6.48437,2.671874 14.22265,9.601562 16.19531,15.464843 -1.36328,3.953125 -6.16797,6.222657 -8.57031,9.714844 -2.8086,3.859375 -5.60938,-1.003906 -7.6836,-2.710937 1.4375,6.023437 -3.605465,35.886718 3.39454,28.3125 3.79687,-2.925782 5.93359,-6.730469 8.28906,-10.082032 1.67969,-2.03125 1.51953,-7.964844 5.65234,-5.125 2.2461,6.203125 6.29297,11.210938 5.97656,18.082032 1.12891,3.734374 0.13282,4.152343 -0.043,7.769531 -0.45313,3.554691 -0.83594,7.832031 -3.58594,10.835941 -0.71875,3.57812 -4.9336,4.94922 -7.80469,6.55078 -2.89844,1.77344 -7.62891,-1.11328 -9.50391,1.04687 -2.76562,2.53125 -5.3164,5.67188 -8.488278,7.71094 -0.941406,1.98438 -3.980468,-0.0625 -3.582031,-1.48437 3.207031,-2.84766 6.394529,-5.45704 9.355469,-8.69922 -0.71484,-1.57422 -2.82812,-2.63282 -3.878906,-4.125 -2.230469,-3.81641 -2.914063,-10.35938 -0.894532,-13.812504"
         id="path931" />
      <path
         style="fill:#3875c2;fill-opacity:1;fill-rule:nonzero;stroke:none;stroke-width:2.3693"
         d="m 135.92187,62.652344 c -0.51171,-2.324219 -2.62109,-4.550782 -2.64453,-6.710938 1.96485,-0.898437 2.98047,-1.574218 4.06641,0.722656 1.94141,4.523438 4.43359,9.363282 4.91406,14.535157 2.12891,6.546875 1.10156,13.800781 1.17969,21.175781 0.27734,1.085938 -0.83203,1.519531 -0.51172,2.894531 0.32422,1.414063 -0.99219,1.972657 -0.69531,3.578125 0.0781,0.828125 -0.77735,1.164064 -0.50781,2.375004 -0.55469,1.61328 -1.32422,3.83984 -1.76563,5.92578 -3.34375,6.57812 -6.41797,13.19531 -12.03515,18.625 -2.50782,6.86718 -7.01172,-1.20313 -6.63282,2.09765 -0.47656,0.90235 -0.49218,1.82813 -0.45703,2.85157 -0.63281,0.0859 -1.02734,0.19921 -0.54297,0.94531 -0.043,1.91797 -1.33593,3.62109 -1.40625,5.26562 -0.082,1.60157 -1.41797,3.22266 0.60938,2.17578 1.71875,-0.10156 3.40234,-0.53125 4.86328,-1.1875 13.60937,-2.50781 0.73828,-1.33203 6.97265,-6.76562 19.15625,-20.51562 24.17579,-50.28125 11.84375,-75.933594 -1.69921,-1.199218 3.10938,-3.785156 3.41407,-1.351562 2.30468,4.761718 3.79297,9.136718 4.86718,14.269531 4.28516,18.414063 1.34375,37.945315 -8.54296,53.855465 -2.53907,3.90235 -4.96875,7.98047 -8.85547,11.29297 0.79297,1.625 3.04297,2.69531 2.30078,5.01563 -0.91406,1.59765 -2.00391,0.38672 -3.26563,1.40625 -0.41406,0.47265 -2.47656,-0.54297 -2.32812,0.78906 -0.89844,0.11328 -1.63672,-0.33203 -2.35938,0.39844 -2.40234,0.14453 -4.16015,1.57812 -6.9414,1.3164 -1.52344,1.50782 -4.87891,1.14453 -7.41797,1.22657 -0.39844,-1.98829 0.49609,-3.44532 0.55078,-5.23438 1.30859,-0.59375 0.0547,-1.96484 1.08203,-2.87109 0,-1.44922 0.75391,-2.3711 0.79688,-3.70313 1.04687,-3.10156 1.11328,-7.16406 3.03515,-10.47265 3.3711,-0.89844 4.40625,5.30468 7,0.8789 14.21875,-16.32031 17.60938,-40.230466 9.41406,-59.386716"
         id="path933" />
      <path
         style="fill:#3875c2;fill-opacity:1;fill-rule:nonzero;stroke:none;stroke-width:2.3693"
         d="m 36.707031,48.136719 c -11.800781,16.242187 -16.375,37.984375 -8.769531,57.156251 0.984375,2.6875 2.894531,5.03516 3.34375,8.12109 -4.027344,2.3086 -4.132812,-1.86328 -5.84375,-4.94531 C 16.394531,87.578125 20.554688,60.382812 36.574219,43.191406 37.820312,40.046875 41.3125,40.292969 43.28125,42.5625 c 0.148438,-0.589844 -0.40625,-1.550781 0.398438,-1.769531 0.0625,-0.59375 -0.02734,-1.296875 0.136718,-1.925781 0.648438,-0.925782 0.144532,-2.011719 0.890625,-3.007813 0.769531,-0.09375 -0.265625,-1.898437 0.730469,-2.453125 0.261719,-0.171875 0.03516,-1.03125 0.109375,-1.566406 2.125,-3.632813 -1.230469,-1.164063 -3.820313,-1.199219 -0.457031,0.02344 -1.105468,-0.234375 -0.886718,0.691406 -0.925782,0.136719 -1.714844,-0.390625 -2.390625,0.410157 -9.65625,1.535156 -1.355469,1.355468 -3.871094,4.957031 -13.820313,13.917969 -21.847656,33.953125 -19.632813,53.832031 0.605469,8.109375 2.816407,16.01953 6.601563,23.51563 -2.902344,8.25781 -6.652344,-6.45313 -7.621094,-9.14844 C 7.378906,81.585938 12.585938,53.558594 30.398438,35.984375 30.773438,34.808594 28.496094,34.359375 28.25,33.257812 28.1875,31.992188 27.933594,29.691406 30,29.9375 c 1.132812,0.01563 2.03125,-0.808594 3.480469,-0.507812 0.195312,-1.523438 2.015625,0.01562 2.769531,-1.15625 0.355469,-0.378907 2.460938,0.363281 2.261719,-0.746094 0.875,-0.144532 1.824219,0.40625 2.511719,-0.429688 0.332031,-0.445312 2.21875,0.464844 2.296874,-0.550781 4.160157,-0.945313 9.207032,-2.378906 6.523438,3.835937 -0.824219,2.648438 -1.183594,5.46875 -2.195312,8.269532 -0.421876,0.558594 0.605468,2.121094 -0.625,2.246094 -0.417969,0.820312 0.34375,1.863281 -0.578126,2.628906 -0.46875,5.523437 -2.730468,5.8125 -6.339843,1.75 -1.609375,0.273437 -1.683594,2.875 -3.398438,2.859375"
         id="path935" />
      <path
         style="fill:#3875c2;fill-opacity:1;fill-rule:nonzero;stroke:none;stroke-width:2.3693"
         d="m 137.12109,33.390625 c 1.05078,2.535156 1.01953,5.28125 2.04297,7.542969 0.35156,0.386718 -0.33984,2.105468 0.63281,2.28125 0.14063,2.925781 3.98829,10.886718 -1.71875,9.632812 -0.48828,-1.421875 -2.00781,0.164063 -2.6914,-0.996094 -0.10547,-0.214843 -0.91016,-0.101562 -1.39453,-0.117187 -0.8711,0.03906 -0.96875,-1.042969 -2.14844,-0.6875 -0.94531,0.265625 -1.05859,-0.734375 -2.19922,-0.507813 -1.28516,-0.308593 -2.44531,-0.484374 -3.86328,-1.148437 -0.15234,-0.234375 -0.92578,-0.05469 -1.41406,-0.06641 -0.97266,0.199219 -0.81641,-1.035157 -1.96485,-0.699219 -5.1914,-0.398438 -4.40234,-3.480469 -0.70703,-6.070312 -1.89843,-2.957032 -5.10937,-4.984376 -8.32031,-6.675782 -12,-8.4375 -27.824219,-11.203125 -42.691406,-8.167968 -1.566406,-0.07813 -2.8125,0.648437 -4.167969,1.191406 -1.960937,0.265625 -5.363281,1.191406 -6.5,2.234375 -3.027344,-0.02344 -6.039063,4.894531 -7.28125,0.800781 -1.355469,-2.585938 4.585937,-2.53125 5.519531,-4.351562 3.1875,-0.925782 5.808594,-1.9375 9.132813,-2.921876 13.980469,-2.621093 31.429687,-2.179687 43.781251,5.832032 3.13672,1.324218 20.78515,10.992187 12.96094,14.816406 0.46484,0.679688 1.89453,-0.410156 2.1289,0.691406 0.67969,0.511719 1.96094,-0.207031 2.62891,0.644532 2.01953,0.214843 3.89062,1.230468 6.24609,1.292968 0.85547,0.05469 1.76953,1.394532 2.23828,0.324219 -1.54297,-1.347656 -0.66797,-4.269531 -1.87109,-5.796875 0.0859,-0.902344 -0.13281,-1.390625 -0.52734,-2.199219 -0.13672,-0.683593 0.35546,-1.492187 -0.47657,-2.066406 0.32032,-4.355469 -1.98828,-0.0078 -4.14453,-1.035156 -4.875,-5.660157 -11.48828,-9.140625 -17.14843,-13.074219 -12.76563,-5.605469 -26.210942,-8.546875 -40.85938,-6.597656 -0.460938,0.0039 -1.097656,-0.222656 -0.894531,0.6875 -1.351563,0.242187 -2.808594,-0.582032 -3.757813,0.445312 -0.410156,0.394532 -1.9375,-0.449218 -2.199218,0.503906 -0.02344,0.09375 -0.472657,0.07422 -0.726563,0.08594 -1.191406,0.410156 -2.332031,0.457031 -3.6875,1.148438 -3.046875,0.277343 -6.457031,3.574218 -9.957031,3.65625 0.273437,-1.371094 -1.894532,-1.65625 -1.007813,-2.800782 3.777344,-2.519531 8.199219,-3.347656 11.75,-5.070312 12.078125,-3.046875 26.378907,-3.664063 37.980469,-0.574219 11.07813,3.148437 22.26563,8.15625 31.03516,17.203125 2.48828,-2.046875 5.99218,-4.007812 6.24218,0.609375"
         id="path937" />
      <path
         style="fill:#3875c2;fill-opacity:1;fill-rule:nonzero;stroke:none;stroke-width:2.3693"
         d="m 92.257812,141.94531 c 4.285157,-0.93359 9.136718,-2.15625 12.882818,-4.02734 1.73046,0.48828 5.72265,-4.48047 5.98437,-1.39063 4.21094,2.08594 -5.53906,5.13672 -7.15625,5.74219 -3.47266,1.93359 -6.851562,1.48438 -9.785156,3.07422 -20.546875,2.82031 -39.882813,-2.25781 -54.960938,-16.27734 -1.859375,-1.58594 -0.507812,-3.9961 1.097656,-5.34766 -1.664062,-0.17187 -3.070312,-0.51562 -4.574218,-1.11719 -0.5625,-0.42968 -2.078125,0.50391 -2.285156,-0.64843 -2.199219,-0.38282 -4.0625,-0.73829 -6.078126,-1.3711 4.96875,23.25391 1.847657,4.03906 10.570313,15.40625 18.582031,15.78906 45.785156,20.80078 68.320315,11.96484 2.03515,-0.62109 4.35937,-2.46093 6.14844,-2.74609 0.75,0.23828 1.1289,0.89844 1.26562,1.65625 0.6875,0.24219 0.39844,0.85547 0.29297,1.14844 -3.14063,2.66797 -8.26953,3.53125 -11.89063,5.09765 -11.539059,3.28125 -25.906246,3.44532 -37.437496,0.53125 C 56.8125,151.57812 47.335938,147.73828 40.75,142.35937 c -2.203125,-1.22656 -4.140625,-3.0039 -6.164062,-4.79296 -0.949219,-0.58594 -1.386719,-2.04297 -1.988282,-0.5 -0.988281,1.61328 -4.699218,2.70312 -5.078125,0.043 0.425781,-1.12109 -0.746093,-1.48828 -0.5,-2.71875 -0.386719,-1.21484 -0.425781,-2.48828 -1.175781,-3.77734 -0.265625,-0.58984 0.464844,-1.90625 -0.59375,-2.22266 -0.113281,-0.0312 -0.08203,-0.52343 -0.136719,-0.80078 0.320313,-1.04687 -0.609375,-1.45312 -0.523437,-2.55468 0.324218,-0.83985 -0.402344,-1.17969 -0.511719,-1.94532 -1.679687,-7.82421 -0.960937,-7.40234 6.4375,-5.5664 1.109375,0.91406 2.257813,0.19922 3.339844,1.0625 0.5,0.46484 2.167969,-0.47266 2.371093,0.66797 0.671876,0.32031 4.902344,0.35547 4.703126,1.35156 5.363281,-0.23828 6.554687,3.00781 1.910156,6.14844 12.902344,13.21484 31.695312,18.04687 49.417968,15.1914"
         id="path939" />
      <path
         style="fill:#3875c2;fill-opacity:1;fill-rule:nonzero;stroke:none;stroke-width:2.3693"
         d="M 86.359375,57.113281 C 88.78125,55.84375 101.42188,55.195312 96.183594,60.039062 93.074219,59.3125 85.539062,62.316406 86.359375,57.113281"
         id="path941" />
      <path
         style="fill:#3875c2;fill-opacity:1;fill-rule:nonzero;stroke:none;stroke-width:2.3693"
         d="m 57.660156,97.324219 c -1.824218,10.867191 15.621094,7.210941 9.539063,-1.46875 -2.9375,-4.34375 -7.503907,-1.675781 -9.539063,1.46875 z m -1.046875,7.714841 C 47.289062,96.648438 63.84375,82.890625 70.269531,93.871094 77.625,102.44141 63.410156,113.50391 56.613281,105.03906"
         id="path943" />
    </g>
  </g>
</svg>
